<?xml version="1.0" standalone="no"?>
<!DOCTYPE svg PUBLIC "-//W3C//DTD SVG 20010904//EN"
 "http://www.w3.org/TR/2001/REC-SVG-20010904/DTD/svg10.dtd">
<svg version="1.0" xmlns="http://www.w3.org/2000/svg"
 width="256.000000pt" height="256.000000pt" viewBox="0 0 256.000000 256.000000"
 preserveAspectRatio="xMidYMid meet">
<metadata>
Created by potrace 1.11, written by Peter Selinger 2001-2013
</metadata>
<g transform="translate(0.000000,256.000000) scale(0.100000,-0.100000)"
fill="#000000" stroke="none">
<path d="M502 2235 l-26 -22 0 -876 c-1 -483 2 -890 7 -907 4 -16 17 -35 30
-42 27 -15 1475 -20 1521 -5 16 6 33 21 40 37 8 20 11 268 10 909 l0 882 -22
22 -23 22 -755 1 -755 2 -27 -23z m1419 -124 c16 -1 17 -65 17 -796 l0 -795
-657 2 -656 3 -2 792 -1 792 21 3 c18 2 1218 1 1278 -1z"/>
<path d="M828 1786 c-2 -6 -3 -65 -3 -131 l0 -120 133 -1 132 -1 0 132 0 133
-129 0 c-87 -1 -131 -4 -133 -12z m222 -56 c16 -10 9 -20 -69 -96 l-45 -43
-37 32 c-41 35 -48 54 -23 64 9 3 21 -3 30 -16 21 -30 34 -26 79 23 45 49 44
49 65 36z"/>
<path d="M1149 1723 c-1 -27 -1 -106 0 -119 1 -9 81 -12 289 -12 158 0 294 1
302 4 15 4 15 8 11 122 l-1 22 -300 0 c-279 0 -300 -1 -301 -17z"/>
<path d="M831 1450 c-3 -3 -6 -62 -6 -132 l0 -128 63 -1 c77 -1 90 -1 152 0
l50 1 0 130 c0 117 -2 130 -17 130 -189 4 -236 4 -242 0z m225 -71 c7 -11
-103 -129 -120 -129 -15 0 -76 62 -76 76 0 26 22 25 49 0 l28 -27 44 46 c44
46 62 54 75 34z"/>
<path d="M1168 1390 c-20 -5 -23 -12 -23 -65 0 -33 1 -64 2 -70 3 -10 588 -14
597 -4 11 11 12 139 2 140 -62 4 -561 3 -578 -1z"/>
<path d="M828 1083 c-3 -15 -3 -223 1 -244 1 -3 60 -6 131 -6 l130 0 0 134 0
133 -129 0 c-114 0 -129 -2 -133 -17z"/>
<path d="M1147 978 c0 -35 2 -68 2 -74 1 -15 601 -15 602 0 0 6 1 39 2 74 l2
62 -305 0 -305 0 2 -62z"/>
</g>
</svg>
